<?xml version="1.0" encoding="utf-8" standalone="no"?>
<!DOCTYPE svg PUBLIC "-//W3C//DTD SVG 1.1//EN"
  "http://www.w3.org/Graphics/SVG/1.1/DTD/svg11.dtd">
<svg xmlns:xlink="http://www.w3.org/1999/xlink" width="1224pt" height="417.6pt" viewBox="0 0 1224 417.6" xmlns="http://www.w3.org/2000/svg" version="1.1">
 <metadata>
  <rdf:RDF xmlns:dc="http://purl.org/dc/elements/1.1/" xmlns:cc="http://creativecommons.org/ns#" xmlns:rdf="http://www.w3.org/1999/02/22-rdf-syntax-ns#">
   <cc:Work>
    <dc:type rdf:resource="http://purl.org/dc/dcmitype/StillImage"/>
    <dc:date>2026-10-09T07:38:23.488327</dc:date>
    <dc:format>image/svg+xml</dc:format>
    <dc:creator>
     <cc:Agent>
      <dc:title>Matplotlib v3.11.2, https://matplotlib.org/</dc:title>
     </cc:Agent>
    </dc:creator>
   </cc:Work>
  </rdf:RDF>
 </metadata>
 <defs>
  <style type="text/css">*{stroke-linejoin: round; stroke-linecap: butt}</style>
 </defs>
 <g id="figure_1">
  <g id="patch_1">
   <path d="M 0 417.6 
L 1224 417.6 
L 1224 0 
L 0 0 
z
" style="fill: #ffffff"/>
  </g>
  <g id="axes_1">
   <g id="patch_2">
    <path d="M 40.12 308.661656 
L 404.4 308.661656 
L 404.4 77.097172 
L 40.12 77.097172 
z
" style="fill: #ffffff"/>
   </g>
   <g id="matplotlib.axis_1">
    <g id="xtick_1">
     <g id="line2d_1">
      <path d="M 56.678182 308.661656 
L 56.678182 77.097172 
" clip-path="url(#p6704607aea)" style="fill: none; stroke: #b0b0b0; stroke-opacity: 0.18; stroke-width: 0.8; stroke-linecap: square"/>
     </g>
     <g id="line2d_2">
      <defs>
       <path id="ma50d095fb3" d="M 0 0 
L 0 3.5 
" style="stroke: #000000; stroke-width: 0.8"/>
      </defs>
      <g>
       <use xlink:href="#ma50d095fb3" x="56.678182" y="308.661656" style="stroke: #000000; stroke-width: 0.8"/>
      </g>
     </g>
     <g id="text_1">
      <text style="font-size: 10px; font-family: 'DejaVu Sans'; text-anchor: middle" x="56.678182" y="323.259312" transform="rotate(-0 56.678182 323.259312)">4</text>
     </g>
    </g>
    <g id="xtick_2">
     <g id="line2d_3">
      <path d="M 387.841818 308.661656 
L 387.841818 77.097172 
" clip-path="url(#p6704607aea)" style="fill: none; stroke: #b0b0b0; stroke-opacity: 0.18; stroke-width: 0.8; stroke-linecap: square"/>
     </g>
     <g id="line2d_4">
      <g>
       <use xlink:href="#ma50d095fb3" x="387.841818" y="308.661656" style="stroke: #000000; stroke-width: 0.8"/>
      </g>
     </g>
     <g id="text_2">
      <text style="font-size: 10px; font-family: 'DejaVu Sans'; text-anchor: middle" x="387.841818" y="323.259312" transform="rotate(-0 387.841818 323.259312)">8</text>
     </g>
    </g>
    <g id="text_3">
     <text style="font-size: 10px; font-family: 'DejaVu Sans'; text-anchor: middle" x="222.26" y="337.260094" transform="rotate(-0 222.26 337.260094)">Workers: one writer + N-1 readers</text>
    </g>
   </g>
   <g id="matplotlib.axis_2">
    <g id="ytick_1">
     <g id="line2d_5">
      <path d="M 40.12 308.661656 
L 404.4 308.661656 
" clip-path="url(#p6704607aea)" style="fill: none; stroke: #b0b0b0; stroke-opacity: 0.18; stroke-width: 0.8; stroke-linecap: square"/>
     </g>
     <g id="line2d_6">
      <defs>
       <path id="m5394dd68a3" d="M 0 0 
L -3.5 0 
" style="stroke: #000000; stroke-width: 0.8"/>
      </defs>
      <g>
       <use xlink:href="#m5394dd68a3" x="40.12" y="308.661656" style="stroke: #000000; stroke-width: 0.8"/>
      </g>
     </g>
     <g id="text_4">
      <text style="font-size: 10px; font-family: 'DejaVu Sans'; text-anchor: end" x="33.12" y="312.460484" transform="rotate(-0 33.12 312.460484)">0.00</text>
     </g>
    </g>
    <g id="ytick_2">
     <g id="line2d_7">
      <path d="M 40.12 282.213949 
L 404.4 282.213949 
" clip-path="url(#p6704607aea)" style="fill: none; stroke: #b0b0b0; stroke-opacity: 0.18; stroke-width: 0.8; stroke-linecap: square"/>
     </g>
     <g id="line2d_8">
      <g>
       <use xlink:href="#m5394dd68a3" x="40.12" y="282.213949" style="stroke: #000000; stroke-width: 0.8"/>
      </g>
     </g>
     <g id="text_5">
      <text style="font-size: 10px; font-family: 'DejaVu Sans'; text-anchor: end" x="33.12" y="286.012777" transform="rotate(-0 33.12 286.012777)">0.02</text>
     </g>
    </g>
    <g id="ytick_3">
     <g id="line2d_9">
      <path d="M 40.12 255.766242 
L 404.4 255.766242 
" clip-path="url(#p6704607aea)" style="fill: none; stroke: #b0b0b0; stroke-opacity: 0.18; stroke-width: 0.8; stroke-linecap: square"/>
     </g>
     <g id="line2d_10">
      <g>
       <use xlink:href="#m5394dd68a3" x="40.12" y="255.766242" style="stroke: #000000; stroke-width: 0.8"/>
      </g>
     </g>
     <g id="text_6">
      <text style="font-size: 10px; font-family: 'DejaVu Sans'; text-anchor: end" x="33.12" y="259.56507" transform="rotate(-0 33.12 259.56507)">0.04</text>
     </g>
    </g>
    <g id="ytick_4">
     <g id="line2d_11">
      <path d="M 40.12 229.318535 
L 404.4 229.318535 
" clip-path="url(#p6704607aea)" style="fill: none; stroke: #b0b0b0; stroke-opacity: 0.18; stroke-width: 0.8; stroke-linecap: square"/>
     </g>
     <g id="line2d_12">
      <g>
       <use xlink:href="#m5394dd68a3" x="40.12" y="229.318535" style="stroke: #000000; stroke-width: 0.8"/>
      </g>
     </g>
     <g id="text_7">
      <text style="font-size: 10px; font-family: 'DejaVu Sans'; text-anchor: end" x="33.12" y="233.117363" transform="rotate(-0 33.12 233.117363)">0.06</text>
     </g>
    </g>
    <g id="ytick_5">
     <g id="line2d_13">
      <path d="M 40.12 202.870828 
L 404.4 202.870828 
" clip-path="url(#p6704607aea)" style="fill: none; stroke: #b0b0b0; stroke-opacity: 0.18; stroke-width: 0.8; stroke-linecap: square"/>
     </g>
     <g id="line2d_14">
      <g>
       <use xlink:href="#m5394dd68a3" x="40.12" y="202.870828" style="stroke: #000000; stroke-width: 0.8"/>
      </g>
     </g>
     <g id="text_8">
      <text style="font-size: 10px; font-family: 'DejaVu Sans'; text-anchor: end" x="33.12" y="206.669656" transform="rotate(-0 33.12 206.669656)">0.08</text>
     </g>
    </g>
    <g id="ytick_6">
     <g id="line2d_15">
      <path d="M 40.12 176.423121 
L 404.4 176.423121 
" clip-path="url(#p6704607aea)" style="fill: none; stroke: #b0b0b0; stroke-opacity: 0.18; stroke-width: 0.8; stroke-linecap: square"/>
     </g>
     <g id="line2d_16">
      <g>
       <use xlink:href="#m5394dd68a3" x="40.12" y="176.423121" style="stroke: #000000; stroke-width: 0.8"/>
      </g>
     </g>
     <g id="text_9">
      <text style="font-size: 10px; font-family: 'DejaVu Sans'; text-anchor: end" x="33.12" y="180.221949" transform="rotate(-0 33.12 180.221949)">0.10</text>
     </g>
    </g>
    <g id="ytick_7">
     <g id="line2d_17">
      <path d="M 40.12 149.975414 
L 404.4 149.975414 
" clip-path="url(#p6704607aea)" style="fill: none; stroke: #b0b0b0; stroke-opacity: 0.18; stroke-width: 0.8; stroke-linecap: square"/>
     </g>
     <g id="line2d_18">
      <g>
       <use xlink:href="#m5394dd68a3" x="40.12" y="149.975414" style="stroke: #000000; stroke-width: 0.8"/>
      </g>
     </g>
     <g id="text_10">
      <text style="font-size: 10px; font-family: 'DejaVu Sans'; text-anchor: end" x="33.12" y="153.774242" transform="rotate(-0 33.12 153.774242)">0.12</text>
     </g>
    </g>
    <g id="ytick_8">
     <g id="line2d_19">
      <path d="M 40.12 123.527707 
L 404.4 123.527707 
" clip-path="url(#p6704607aea)" style="fill: none; stroke: #b0b0b0; stroke-opacity: 0.18; stroke-width: 0.8; stroke-linecap: square"/>
     </g>
     <g id="line2d_20">
      <g>
       <use xlink:href="#m5394dd68a3" x="40.12" y="123.527707" style="stroke: #000000; stroke-width: 0.8"/>
      </g>
     </g>
     <g id="text_11">
      <text style="font-size: 10px; font-family: 'DejaVu Sans'; text-anchor: end" x="33.12" y="127.326535" transform="rotate(-0 33.12 127.326535)">0.14</text>
     </g>
    </g>
    <g id="ytick_9">
     <g id="line2d_21">
      <path d="M 40.12 97.08 
L 404.4 97.08 
" clip-path="url(#p6704607aea)" style="fill: none; stroke: #b0b0b0; stroke-opacity: 0.18; stroke-width: 0.8; stroke-linecap: square"/>
     </g>
     <g id="line2d_22">
      <g>
       <use xlink:href="#m5394dd68a3" x="40.12" y="97.08" style="stroke: #000000; stroke-width: 0.8"/>
      </g>
     </g>
     <g id="text_12">
      <text style="font-size: 10px; font-family: 'DejaVu Sans'; text-anchor: end" x="33.12" y="100.878828" transform="rotate(-0 33.12 100.878828)">0.16</text>
     </g>
    </g>
   </g>
   <g id="line2d_23">
    <path d="M 56.678182 274.041442 
L 387.841818 219.152177 
" clip-path="url(#p6704607aea)" style="fill: none; stroke: #aec7e8; stroke-width: 1.5; stroke-linecap: square"/>
    <defs>
     <path id="m32df14957c" d="M 0 3 
C 0.795609 3 1.55874 2.683901 2.12132 2.12132 
C 2.683901 1.55874 3 0.795609 3 0 
C 3 -0.795609 2.683901 -1.55874 2.12132 -2.12132 
C 1.55874 -2.683901 0.795609 -3 0 -3 
C -0.795609 -3 -1.55874 -2.683901 -2.12132 -2.12132 
C -2.683901 -1.55874 -3 -0.795609 -3 0 
C -3 0.795609 -2.683901 1.55874 -2.12132 2.12132 
C -1.55874 2.683901 -0.795609 3 0 3 
z
" style="stroke: #aec7e8"/>
    </defs>
    <g clip-path="url(#p6704607aea)">
     <use xlink:href="#m32df14957c" x="56.678182" y="274.041442" style="fill: #aec7e8; stroke: #aec7e8"/>
     <use xlink:href="#m32df14957c" x="387.841818" y="219.152177" style="fill: #aec7e8; stroke: #aec7e8"/>
    </g>
   </g>
   <g id="line2d_24">
    <path d="M 56.678182 213.131037 
L 387.841818 86.914175 
" clip-path="url(#p6704607aea)" style="fill: none; stroke: #ffbb78; stroke-width: 1.5; stroke-linecap: square"/>
    <defs>
     <path id="m84258228b9" d="M 0 3 
C 0.795609 3 1.55874 2.683901 2.12132 2.12132 
C 2.683901 1.55874 3 0.795609 3 0 
C 3 -0.795609 2.683901 -1.55874 2.12132 -2.12132 
C 1.55874 -2.683901 0.795609 -3 0 -3 
C -0.795609 -3 -1.55874 -2.683901 -2.12132 -2.12132 
C -2.683901 -1.55874 -3 -0.795609 -3 0 
C -3 0.795609 -2.683901 1.55874 -2.12132 2.12132 
C -1.55874 2.683901 -0.795609 3 0 3 
z
" style="stroke: #ffbb78"/>
    </defs>
    <g clip-path="url(#p6704607aea)">
     <use xlink:href="#m84258228b9" x="56.678182" y="213.131037" style="fill: #ffbb78; stroke: #ffbb78"/>
     <use xlink:href="#m84258228b9" x="387.841818" y="86.914175" style="fill: #ffbb78; stroke: #ffbb78"/>
    </g>
   </g>
   <g id="line2d_25">
    <path d="M 56.678182 268.02581 
L 387.841818 214.531525 
" clip-path="url(#p6704607aea)" style="fill: none; stroke: #98df8a; stroke-width: 1.5; stroke-linecap: square"/>
    <defs>
     <path id="m50e7ce5f10" d="M 0 3 
C 0.795609 3 1.55874 2.683901 2.12132 2.12132 
C 2.683901 1.55874 3 0.795609 3 0 
C 3 -0.795609 2.683901 -1.55874 2.12132 -2.12132 
C 1.55874 -2.683901 0.795609 -3 0 -3 
C -0.795609 -3 -1.55874 -2.683901 -2.12132 -2.12132 
C -2.683901 -1.55874 -3 -0.795609 -3 0 
C -3 0.795609 -2.683901 1.55874 -2.12132 2.12132 
C -1.55874 2.683901 -0.795609 3 0 3 
z
" style="stroke: #98df8a"/>
    </defs>
    <g clip-path="url(#p6704607aea)">
     <use xlink:href="#m50e7ce5f10" x="56.678182" y="268.02581" style="fill: #98df8a; stroke: #98df8a"/>
     <use xlink:href="#m50e7ce5f10" x="387.841818" y="214.531525" style="fill: #98df8a; stroke: #98df8a"/>
    </g>
   </g>
   <g id="line2d_26">
    <path d="M 56.678182 257.688221 
L 387.841818 181.853045 
" clip-path="url(#p6704607aea)" style="fill: none; stroke: #d62728; stroke-width: 1.5; stroke-linecap: square"/>
    <defs>
     <path id="m874cb5e8ab" d="M 0 3 
C 0.795609 3 1.55874 2.683901 2.12132 2.12132 
C 2.683901 1.55874 3 0.795609 3 0 
C 3 -0.795609 2.683901 -1.55874 2.12132 -2.12132 
C 1.55874 -2.683901 0.795609 -3 0 -3 
C -0.795609 -3 -1.55874 -2.683901 -2.12132 -2.12132 
C -2.683901 -1.55874 -3 -0.795609 -3 0 
C -3 0.795609 -2.683901 1.55874 -2.12132 2.12132 
C -1.55874 2.683901 -0.795609 3 0 3 
z
" style="stroke: #d62728"/>
    </defs>
    <g clip-path="url(#p6704607aea)">
     <use xlink:href="#m874cb5e8ab" x="56.678182" y="257.688221" style="fill: #d62728; stroke: #d62728"/>
     <use xlink:href="#m874cb5e8ab" x="387.841818" y="181.853045" style="fill: #d62728; stroke: #d62728"/>
    </g>
   </g>
   <g id="line2d_27">
    <path d="M 56.678182 219.378708 
L 387.841818 97.640971 
" clip-path="url(#p6704607aea)" style="fill: none; stroke: #ff9896; stroke-width: 1.5; stroke-linecap: square"/>
    <defs>
     <path id="m22e5cf39de" d="M 0 3 
C 0.795609 3 1.55874 2.683901 2.12132 2.12132 
C 2.683901 1.55874 3 0.795609 3 0 
C 3 -0.795609 2.683901 -1.55874 2.12132 -2.12132 
C 1.55874 -2.683901 0.795609 -3 0 -3 
C -0.795609 -3 -1.55874 -2.683901 -2.12132 -2.12132 
C -2.683901 -1.55874 -3 -0.795609 -3 0 
C -3 0.795609 -2.683901 1.55874 -2.12132 2.12132 
C -1.55874 2.683901 -0.795609 3 0 3 
z
" style="stroke: #ff9896"/>
    </defs>
    <g clip-path="url(#p6704607aea)">
     <use xlink:href="#m22e5cf39de" x="56.678182" y="219.378708" style="fill: #ff9896; stroke: #ff9896"/>
     <use xlink:href="#m22e5cf39de" x="387.841818" y="97.640971" style="fill: #ff9896; stroke: #ff9896"/>
    </g>
   </g>
   <g id="line2d_28">
    <path d="M 56.678182 283.254247 
L 387.841818 248.929847 
" clip-path="url(#p6704607aea)" style="fill: none; stroke: #8c564b; stroke-width: 1.5; stroke-linecap: square"/>
    <defs>
     <path id="mbf3dee5b5c" d="M 0 3 
C 0.795609 3 1.55874 2.683901 2.12132 2.12132 
C 2.683901 1.55874 3 0.795609 3 0 
C 3 -0.795609 2.683901 -1.55874 2.12132 -2.12132 
C 1.55874 -2.683901 0.795609 -3 0 -3 
C -0.795609 -3 -1.55874 -2.683901 -2.12132 -2.12132 
C -2.683901 -1.55874 -3 -0.795609 -3 0 
C -3 0.795609 -2.683901 1.55874 -2.12132 2.12132 
C -1.55874 2.683901 -0.795609 3 0 3 
z
" style="stroke: #8c564b"/>
    </defs>
    <g clip-path="url(#p6704607aea)">
     <use xlink:href="#mbf3dee5b5c" x="56.678182" y="283.254247" style="fill: #8c564b; stroke: #8c564b"/>
     <use xlink:href="#mbf3dee5b5c" x="387.841818" y="248.929847" style="fill: #8c564b; stroke: #8c564b"/>
    </g>
   </g>
   <g id="line2d_29">
    <path d="M 56.678182 257.97126 
L 387.841818 187.23721 
" clip-path="url(#p6704607aea)" style="fill: none; stroke: #c49c94; stroke-width: 1.5; stroke-linecap: square"/>
    <defs>
     <path id="mbc7ece2c8b" d="M 0 3 
C 0.795609 3 1.55874 2.683901 2.12132 2.12132 
C 2.683901 1.55874 3 0.795609 3 0 
C 3 -0.795609 2.683901 -1.55874 2.12132 -2.12132 
C 1.55874 -2.683901 0.795609 -3 0 -3 
C -0.795609 -3 -1.55874 -2.683901 -2.12132 -2.12132 
C -2.683901 -1.55874 -3 -0.795609 -3 0 
C -3 0.795609 -2.683901 1.55874 -2.12132 2.12132 
C -1.55874 2.683901 -0.795609 3 0 3 
z
" style="stroke: #c49c94"/>
    </defs>
    <g clip-path="url(#p6704607aea)">
     <use xlink:href="#mbc7ece2c8b" x="56.678182" y="257.97126" style="fill: #c49c94; stroke: #c49c94"/>
     <use xlink:href="#mbc7ece2c8b" x="387.841818" y="187.23721" style="fill: #c49c94; stroke: #c49c94"/>
    </g>
   </g>
   <g id="patch_3">
    <path d="M 40.12 308.661656 
L 40.12 77.097172 
" style="fill: none; stroke: #000000; stroke-width: 0.8; stroke-linejoin: miter; stroke-linecap: square"/>
   </g>
   <g id="patch_4">
    <path d="M 40.12 308.661656 
L 404.4 308.661656 
" style="fill: none; stroke: #000000; stroke-width: 0.8; stroke-linejoin: miter; stroke-linecap: square"/>
   </g>
   <g id="text_13">
    <text style="font-size: 11px; font-family: 'DejaVu Sans'; text-anchor: start" x="40.12" y="71.097172" transform="rotate(-0 40.12 71.097172)">Group wall throughput: Mrequests/s</text>
   </g>
  </g>
  <g id="axes_2">
   <g id="patch_5">
    <path d="M 444.52 308.661656 
L 808.8 308.661656 
L 808.8 77.097172 
L 444.52 77.097172 
z
" style="fill: #ffffff"/>
   </g>
   <g id="matplotlib.axis_3">
    <g id="xtick_3">
     <g id="line2d_30">
      <path d="M 461.078182 308.661656 
L 461.078182 77.097172 
" clip-path="url(#p3b0d56240d)" style="fill: none; stroke: #b0b0b0; stroke-opacity: 0.18; stroke-width: 0.8; stroke-linecap: square"/>
     </g>
     <g id="line2d_31">
      <g>
       <use xlink:href="#ma50d095fb3" x="461.078182" y="308.661656" style="stroke: #000000; stroke-width: 0.8"/>
      </g>
     </g>
     <g id="text_14">
      <text style="font-size: 10px; font-family: 'DejaVu Sans'; text-anchor: middle" x="461.078182" y="323.259312" transform="rotate(-0 461.078182 323.259312)">4</text>
     </g>
    </g>
    <g id="xtick_4">
     <g id="line2d_32">
      <path d="M 792.241818 308.661656 
L 792.241818 77.097172 
" clip-path="url(#p3b0d56240d)" style="fill: none; stroke: #b0b0b0; stroke-opacity: 0.18; stroke-width: 0.8; stroke-linecap: square"/>
     </g>
     <g id="line2d_33">
      <g>
       <use xlink:href="#ma50d095fb3" x="792.241818" y="308.661656" style="stroke: #000000; stroke-width: 0.8"/>
      </g>
     </g>
     <g id="text_15">
      <text style="font-size: 10px; font-family: 'DejaVu Sans'; text-anchor: middle" x="792.241818" y="323.259312" transform="rotate(-0 792.241818 323.259312)">8</text>
     </g>
    </g>
    <g id="text_16">
     <text style="font-size: 10px; font-family: 'DejaVu Sans'; text-anchor: middle" x="626.66" y="337.260094" transform="rotate(-0 626.66 337.260094)">Workers: one writer + N-1 readers</text>
    </g>
   </g>
   <g id="matplotlib.axis_4">
    <g id="ytick_10">
     <g id="line2d_34">
      <path d="M 444.52 308.661656 
L 808.8 308.661656 
" clip-path="url(#p3b0d56240d)" style="fill: none; stroke: #b0b0b0; stroke-opacity: 0.18; stroke-width: 0.8; stroke-linecap: square"/>
     </g>
     <g id="line2d_35">
      <g>
       <use xlink:href="#m5394dd68a3" x="444.52" y="308.661656" style="stroke: #000000; stroke-width: 0.8"/>
      </g>
     </g>
     <g id="text_17">
      <text style="font-size: 10px; font-family: 'DejaVu Sans'; text-anchor: end" x="437.52" y="312.460484" transform="rotate(-0 437.52 312.460484)">0.00</text>
     </g>
    </g>
    <g id="ytick_11">
     <g id="line2d_36">
      <path d="M 444.52 282.007326 
L 808.8 282.007326 
" clip-path="url(#p3b0d56240d)" style="fill: none; stroke: #b0b0b0; stroke-opacity: 0.18; stroke-width: 0.8; stroke-linecap: square"/>
     </g>
     <g id="line2d_37">
      <g>
       <use xlink:href="#m5394dd68a3" x="444.52" y="282.007326" style="stroke: #000000; stroke-width: 0.8"/>
      </g>
     </g>
     <g id="text_18">
      <text style="font-size: 10px; font-family: 'DejaVu Sans'; text-anchor: end" x="437.52" y="285.806155" transform="rotate(-0 437.52 285.806155)">0.02</text>
     </g>
    </g>
    <g id="ytick_12">
     <g id="line2d_38">
      <path d="M 444.52 255.352997 
L 808.8 255.352997 
" clip-path="url(#p3b0d56240d)" style="fill: none; stroke: #b0b0b0; stroke-opacity: 0.18; stroke-width: 0.8; stroke-linecap: square"/>
     </g>
     <g id="line2d_39">
      <g>
       <use xlink:href="#m5394dd68a3" x="444.52" y="255.352997" style="stroke: #000000; stroke-width: 0.8"/>
      </g>
     </g>
     <g id="text_19">
      <text style="font-size: 10px; font-family: 'DejaVu Sans'; text-anchor: end" x="437.52" y="259.151825" transform="rotate(-0 437.52 259.151825)">0.04</text>
     </g>
    </g>
    <g id="ytick_13">
     <g id="line2d_40">
      <path d="M 444.52 228.698667 
L 808.8 228.698667 
" clip-path="url(#p3b0d56240d)" style="fill: none; stroke: #b0b0b0; stroke-opacity: 0.18; stroke-width: 0.8; stroke-linecap: square"/>
     </g>
     <g id="line2d_41">
      <g>
       <use xlink:href="#m5394dd68a3" x="444.52" y="228.698667" style="stroke: #000000; stroke-width: 0.8"/>
      </g>
     </g>
     <g id="text_20">
      <text style="font-size: 10px; font-family: 'DejaVu Sans'; text-anchor: end" x="437.52" y="232.497495" transform="rotate(-0 437.52 232.497495)">0.06</text>
     </g>
    </g>
    <g id="ytick_14">
     <g id="line2d_42">
      <path d="M 444.52 202.044337 
L 808.8 202.044337 
" clip-path="url(#p3b0d56240d)" style="fill: none; stroke: #b0b0b0; stroke-opacity: 0.18; stroke-width: 0.8; stroke-linecap: square"/>
     </g>
     <g id="line2d_43">
      <g>
       <use xlink:href="#m5394dd68a3" x="444.52" y="202.044337" style="stroke: #000000; stroke-width: 0.8"/>
      </g>
     </g>
     <g id="text_21">
      <text style="font-size: 10px; font-family: 'DejaVu Sans'; text-anchor: end" x="437.52" y="205.843165" transform="rotate(-0 437.52 205.843165)">0.08</text>
     </g>
    </g>
    <g id="ytick_15">
     <g id="line2d_44">
      <path d="M 444.52 175.390007 
L 808.8 175.390007 
" clip-path="url(#p3b0d56240d)" style="fill: none; stroke: #b0b0b0; stroke-opacity: 0.18; stroke-width: 0.8; stroke-linecap: square"/>
     </g>
     <g id="line2d_45">
      <g>
       <use xlink:href="#m5394dd68a3" x="444.52" y="175.390007" style="stroke: #000000; stroke-width: 0.8"/>
      </g>
     </g>
     <g id="text_22">
      <text style="font-size: 10px; font-family: 'DejaVu Sans'; text-anchor: end" x="437.52" y="179.188835" transform="rotate(-0 437.52 179.188835)">0.10</text>
     </g>
    </g>
    <g id="ytick_16">
     <g id="line2d_46">
      <path d="M 444.52 148.735678 
L 808.8 148.735678 
" clip-path="url(#p3b0d56240d)" style="fill: none; stroke: #b0b0b0; stroke-opacity: 0.18; stroke-width: 0.8; stroke-linecap: square"/>
     </g>
     <g id="line2d_47">
      <g>
       <use xlink:href="#m5394dd68a3" x="444.52" y="148.735678" style="stroke: #000000; stroke-width: 0.8"/>
      </g>
     </g>
     <g id="text_23">
      <text style="font-size: 10px; font-family: 'DejaVu Sans'; text-anchor: end" x="437.52" y="152.534506" transform="rotate(-0 437.52 152.534506)">0.12</text>
     </g>
    </g>
    <g id="ytick_17">
     <g id="line2d_48">
      <path d="M 444.52 122.081348 
L 808.8 122.081348 
" clip-path="url(#p3b0d56240d)" style="fill: none; stroke: #b0b0b0; stroke-opacity: 0.18; stroke-width: 0.8; stroke-linecap: square"/>
     </g>
     <g id="line2d_49">
      <g>
       <use xlink:href="#m5394dd68a3" x="444.52" y="122.081348" style="stroke: #000000; stroke-width: 0.8"/>
      </g>
     </g>
     <g id="text_24">
      <text style="font-size: 10px; font-family: 'DejaVu Sans'; text-anchor: end" x="437.52" y="125.880176" transform="rotate(-0 437.52 125.880176)">0.14</text>
     </g>
    </g>
    <g id="ytick_18">
     <g id="line2d_50">
      <path d="M 444.52 95.427018 
L 808.8 95.427018 
" clip-path="url(#p3b0d56240d)" style="fill: none; stroke: #b0b0b0; stroke-opacity: 0.18; stroke-width: 0.8; stroke-linecap: square"/>
     </g>
     <g id="line2d_51">
      <g>
       <use xlink:href="#m5394dd68a3" x="444.52" y="95.427018" style="stroke: #000000; stroke-width: 0.8"/>
      </g>
     </g>
     <g id="text_25">
      <text style="font-size: 10px; font-family: 'DejaVu Sans'; text-anchor: end" x="437.52" y="99.225846" transform="rotate(-0 437.52 99.225846)">0.16</text>
     </g>
    </g>
   </g>
   <g id="line2d_52">
    <path d="M 461.078182 274.041443 
L 792.241818 219.152176 
" clip-path="url(#p3b0d56240d)" style="fill: none; stroke: #aec7e8; stroke-width: 1.5; stroke-linecap: square"/>
    <g clip-path="url(#p3b0d56240d)">
     <use xlink:href="#m32df14957c" x="461.078182" y="274.041443" style="fill: #aec7e8; stroke: #aec7e8"/>
     <use xlink:href="#m32df14957c" x="792.241818" y="219.152176" style="fill: #aec7e8; stroke: #aec7e8"/>
    </g>
   </g>
   <g id="line2d_53">
    <path d="M 461.078182 213.131038 
L 792.241818 86.914176 
" clip-path="url(#p3b0d56240d)" style="fill: none; stroke: #ffbb78; stroke-width: 1.5; stroke-linecap: square"/>
    <g clip-path="url(#p3b0d56240d)">
     <use xlink:href="#m84258228b9" x="461.078182" y="213.131038" style="fill: #ffbb78; stroke: #ffbb78"/>
     <use xlink:href="#m84258228b9" x="792.241818" y="86.914176" style="fill: #ffbb78; stroke: #ffbb78"/>
    </g>
   </g>
   <g id="line2d_54">
    <path d="M 461.078182 268.02581 
L 792.241818 214.531525 
" clip-path="url(#p3b0d56240d)" style="fill: none; stroke: #98df8a; stroke-width: 1.5; stroke-linecap: square"/>
    <g clip-path="url(#p3b0d56240d)">
     <use xlink:href="#m50e7ce5f10" x="461.078182" y="268.02581" style="fill: #98df8a; stroke: #98df8a"/>
     <use xlink:href="#m50e7ce5f10" x="792.241818" y="214.531525" style="fill: #98df8a; stroke: #98df8a"/>
    </g>
   </g>
   <g id="line2d_55">
    <path d="M 461.078182 257.68822 
L 792.241818 181.853045 
" clip-path="url(#p3b0d56240d)" style="fill: none; stroke: #d62728; stroke-width: 1.5; stroke-linecap: square"/>
    <g clip-path="url(#p3b0d56240d)">
     <use xlink:href="#m874cb5e8ab" x="461.078182" y="257.68822" style="fill: #d62728; stroke: #d62728"/>
     <use xlink:href="#m874cb5e8ab" x="792.241818" y="181.853045" style="fill: #d62728; stroke: #d62728"/>
    </g>
   </g>
   <g id="line2d_56">
    <path d="M 461.078182 219.378709 
L 792.241818 97.640972 
" clip-path="url(#p3b0d56240d)" style="fill: none; stroke: #ff9896; stroke-width: 1.5; stroke-linecap: square"/>
    <g clip-path="url(#p3b0d56240d)">
     <use xlink:href="#m22e5cf39de" x="461.078182" y="219.378709" style="fill: #ff9896; stroke: #ff9896"/>
     <use xlink:href="#m22e5cf39de" x="792.241818" y="97.640972" style="fill: #ff9896; stroke: #ff9896"/>
    </g>
   </g>
   <g id="line2d_57">
    <path d="M 461.078182 283.254248 
L 792.241818 248.929847 
" clip-path="url(#p3b0d56240d)" style="fill: none; stroke: #8c564b; stroke-width: 1.5; stroke-linecap: square"/>
    <g clip-path="url(#p3b0d56240d)">
     <use xlink:href="#mbf3dee5b5c" x="461.078182" y="283.254248" style="fill: #8c564b; stroke: #8c564b"/>
     <use xlink:href="#mbf3dee5b5c" x="792.241818" y="248.929847" style="fill: #8c564b; stroke: #8c564b"/>
    </g>
   </g>
   <g id="line2d_58">
    <path d="M 461.078182 257.971261 
L 792.241818 187.237211 
" clip-path="url(#p3b0d56240d)" style="fill: none; stroke: #c49c94; stroke-width: 1.5; stroke-linecap: square"/>
    <g clip-path="url(#p3b0d56240d)">
     <use xlink:href="#mbc7ece2c8b" x="461.078182" y="257.971261" style="fill: #c49c94; stroke: #c49c94"/>
     <use xlink:href="#mbc7ece2c8b" x="792.241818" y="187.237211" style="fill: #c49c94; stroke: #c49c94"/>
    </g>
   </g>
   <g id="patch_6">
    <path d="M 444.52 308.661656 
L 444.52 77.097172 
" style="fill: none; stroke: #000000; stroke-width: 0.8; stroke-linejoin: miter; stroke-linecap: square"/>
   </g>
   <g id="patch_7">
    <path d="M 444.52 308.661656 
L 808.8 308.661656 
" style="fill: none; stroke: #000000; stroke-width: 0.8; stroke-linejoin: miter; stroke-linecap: square"/>
   </g>
   <g id="text_26">
    <text style="font-size: 11px; font-family: 'DejaVu Sans'; text-anchor: start" x="444.52" y="71.097172" transform="rotate(-0 444.52 71.097172)">Readers / group wall: Mrequests/s</text>
   </g>
  </g>
  <g id="axes_3">
   <g id="patch_8">
    <path d="M 848.92 308.661656 
L 1213.2 308.661656 
L 1213.2 77.097172 
L 848.92 77.097172 
z
" style="fill: #ffffff"/>
   </g>
   <g id="matplotlib.axis_5">
    <g id="xtick_5">
     <g id="line2d_59">
      <path d="M 865.478182 308.661656 
L 865.478182 77.097172 
" clip-path="url(#p90375b895b)" style="fill: none; stroke: #b0b0b0; stroke-opacity: 0.18; stroke-width: 0.8; stroke-linecap: square"/>
     </g>
     <g id="line2d_60">
      <g>
       <use xlink:href="#ma50d095fb3" x="865.478182" y="308.661656" style="stroke: #000000; stroke-width: 0.8"/>
      </g>
     </g>
     <g id="text_27">
      <text style="font-size: 10px; font-family: 'DejaVu Sans'; text-anchor: middle" x="865.478182" y="323.259312" transform="rotate(-0 865.478182 323.259312)">4</text>
     </g>
    </g>
    <g id="xtick_6">
     <g id="line2d_61">
      <path d="M 1196.641818 308.661656 
L 1196.641818 77.097172 
" clip-path="url(#p90375b895b)" style="fill: none; stroke: #b0b0b0; stroke-opacity: 0.18; stroke-width: 0.8; stroke-linecap: square"/>
     </g>
     <g id="line2d_62">
      <g>
       <use xlink:href="#ma50d095fb3" x="1196.641818" y="308.661656" style="stroke: #000000; stroke-width: 0.8"/>
      </g>
     </g>
     <g id="text_28">
      <text style="font-size: 10px; font-family: 'DejaVu Sans'; text-anchor: middle" x="1196.641818" y="323.259312" transform="rotate(-0 1196.641818 323.259312)">8</text>
     </g>
    </g>
    <g id="text_29">
     <text style="font-size: 10px; font-family: 'DejaVu Sans'; text-anchor: middle" x="1031.06" y="337.260094" transform="rotate(-0 1031.06 337.260094)">Workers: one writer + N-1 readers</text>
    </g>
   </g>
   <g id="matplotlib.axis_6">
    <g id="ytick_19">
     <g id="line2d_63">
      <path d="M 848.92 308.661656 
L 1213.2 308.661656 
" clip-path="url(#p90375b895b)" style="fill: none; stroke: #b0b0b0; stroke-opacity: 0.18; stroke-width: 0.8; stroke-linecap: square"/>
     </g>
     <g id="line2d_64">
      <g>
       <use xlink:href="#m5394dd68a3" x="848.92" y="308.661656" style="stroke: #000000; stroke-width: 0.8"/>
      </g>
     </g>
     <g id="text_30">
      <text style="font-size: 10px; font-family: 'DejaVu Sans'; text-anchor: end" x="841.92" y="312.460484" transform="rotate(-0 841.92 312.460484)">0.0</text>
     </g>
    </g>
    <g id="ytick_20">
     <g id="line2d_65">
      <path d="M 848.92 277.406168 
L 1213.2 277.406168 
" clip-path="url(#p90375b895b)" style="fill: none; stroke: #b0b0b0; stroke-opacity: 0.18; stroke-width: 0.8; stroke-linecap: square"/>
     </g>
     <g id="line2d_66">
      <g>
       <use xlink:href="#m5394dd68a3" x="848.92" y="277.406168" style="stroke: #000000; stroke-width: 0.8"/>
      </g>
     </g>
     <g id="text_31">
      <text style="font-size: 10px; font-family: 'DejaVu Sans'; text-anchor: end" x="841.92" y="281.204996" transform="rotate(-0 841.92 281.204996)">0.1</text>
     </g>
    </g>
    <g id="ytick_21">
     <g id="line2d_67">
      <path d="M 848.92 246.150679 
L 1213.2 246.150679 
" clip-path="url(#p90375b895b)" style="fill: none; stroke: #b0b0b0; stroke-opacity: 0.18; stroke-width: 0.8; stroke-linecap: square"/>
     </g>
     <g id="line2d_68">
      <g>
       <use xlink:href="#m5394dd68a3" x="848.92" y="246.150679" style="stroke: #000000; stroke-width: 0.8"/>
      </g>
     </g>
     <g id="text_32">
      <text style="font-size: 10px; font-family: 'DejaVu Sans'; text-anchor: end" x="841.92" y="249.949507" transform="rotate(-0 841.92 249.949507)">0.2</text>
     </g>
    </g>
    <g id="ytick_22">
     <g id="line2d_69">
      <path d="M 848.92 214.89519 
L 1213.2 214.89519 
" clip-path="url(#p90375b895b)" style="fill: none; stroke: #b0b0b0; stroke-opacity: 0.18; stroke-width: 0.8; stroke-linecap: square"/>
     </g>
     <g id="line2d_70">
      <g>
       <use xlink:href="#m5394dd68a3" x="848.92" y="214.89519" style="stroke: #000000; stroke-width: 0.8"/>
      </g>
     </g>
     <g id="text_33">
      <text style="font-size: 10px; font-family: 'DejaVu Sans'; text-anchor: end" x="841.92" y="218.694018" transform="rotate(-0 841.92 218.694018)">0.3</text>
     </g>
    </g>
    <g id="ytick_23">
     <g id="line2d_71">
      <path d="M 848.92 183.639701 
L 1213.2 183.639701 
" clip-path="url(#p90375b895b)" style="fill: none; stroke: #b0b0b0; stroke-opacity: 0.18; stroke-width: 0.8; stroke-linecap: square"/>
     </g>
     <g id="line2d_72">
      <g>
       <use xlink:href="#m5394dd68a3" x="848.92" y="183.639701" style="stroke: #000000; stroke-width: 0.8"/>
      </g>
     </g>
     <g id="text_34">
      <text style="font-size: 10px; font-family: 'DejaVu Sans'; text-anchor: end" x="841.92" y="187.43853" transform="rotate(-0 841.92 187.43853)">0.4</text>
     </g>
    </g>
    <g id="ytick_24">
     <g id="line2d_73">
      <path d="M 848.92 152.384213 
L 1213.2 152.384213 
" clip-path="url(#p90375b895b)" style="fill: none; stroke: #b0b0b0; stroke-opacity: 0.18; stroke-width: 0.8; stroke-linecap: square"/>
     </g>
     <g id="line2d_74">
      <g>
       <use xlink:href="#m5394dd68a3" x="848.92" y="152.384213" style="stroke: #000000; stroke-width: 0.8"/>
      </g>
     </g>
     <g id="text_35">
      <text style="font-size: 10px; font-family: 'DejaVu Sans'; text-anchor: end" x="841.92" y="156.183041" transform="rotate(-0 841.92 156.183041)">0.5</text>
     </g>
    </g>
    <g id="ytick_25">
     <g id="line2d_75">
      <path d="M 848.92 121.128724 
L 1213.2 121.128724 
" clip-path="url(#p90375b895b)" style="fill: none; stroke: #b0b0b0; stroke-opacity: 0.18; stroke-width: 0.8; stroke-linecap: square"/>
     </g>
     <g id="line2d_76">
      <g>
       <use xlink:href="#m5394dd68a3" x="848.92" y="121.128724" style="stroke: #000000; stroke-width: 0.8"/>
      </g>
     </g>
     <g id="text_36">
      <text style="font-size: 10px; font-family: 'DejaVu Sans'; text-anchor: end" x="841.92" y="124.927552" transform="rotate(-0 841.92 124.927552)">0.6</text>
     </g>
    </g>
    <g id="ytick_26">
     <g id="line2d_77">
      <path d="M 848.92 89.873235 
L 1213.2 89.873235 
" clip-path="url(#p90375b895b)" style="fill: none; stroke: #b0b0b0; stroke-opacity: 0.18; stroke-width: 0.8; stroke-linecap: square"/>
     </g>
     <g id="line2d_78">
      <g>
       <use xlink:href="#m5394dd68a3" x="848.92" y="89.873235" style="stroke: #000000; stroke-width: 0.8"/>
      </g>
     </g>
     <g id="text_37">
      <text style="font-size: 10px; font-family: 'DejaVu Sans'; text-anchor: end" x="841.92" y="93.672064" transform="rotate(-0 841.92 93.672064)">0.7</text>
     </g>
    </g>
   </g>
   <g id="line2d_79">
    <path d="M 865.478182 224.343056 
L 1196.641818 221.472972 
" clip-path="url(#p90375b895b)" style="fill: none; stroke: #aec7e8; stroke-width: 1.5; stroke-linecap: square"/>
    <g clip-path="url(#p90375b895b)">
     <use xlink:href="#m32df14957c" x="865.478182" y="224.343056" style="fill: #aec7e8; stroke: #aec7e8"/>
     <use xlink:href="#m32df14957c" x="1196.641818" y="221.472972" style="fill: #aec7e8; stroke: #aec7e8"/>
    </g>
   </g>
   <g id="line2d_80">
    <path d="M 865.478182 202.606787 
L 1196.641818 199.599075 
" clip-path="url(#p90375b895b)" style="fill: none; stroke: #ffbb78; stroke-width: 1.5; stroke-linecap: square"/>
    <g clip-path="url(#p90375b895b)">
     <use xlink:href="#m84258228b9" x="865.478182" y="202.606787" style="fill: #ffbb78; stroke: #ffbb78"/>
     <use xlink:href="#m84258228b9" x="1196.641818" y="199.599075" style="fill: #ffbb78; stroke: #ffbb78"/>
    </g>
   </g>
   <g id="line2d_81">
    <path d="M 865.478182 98.376938 
L 1196.641818 101.821345 
" clip-path="url(#p90375b895b)" style="fill: none; stroke: #98df8a; stroke-width: 1.5; stroke-linecap: square"/>
    <g clip-path="url(#p90375b895b)">
     <use xlink:href="#m50e7ce5f10" x="865.478182" y="98.376938" style="fill: #98df8a; stroke: #98df8a"/>
     <use xlink:href="#m50e7ce5f10" x="1196.641818" y="101.821345" style="fill: #98df8a; stroke: #98df8a"/>
    </g>
   </g>
   <g id="line2d_82">
    <path d="M 865.478182 208.695577 
L 1196.641818 207.420107 
" clip-path="url(#p90375b895b)" style="fill: none; stroke: #d62728; stroke-width: 1.5; stroke-linecap: square"/>
    <g clip-path="url(#p90375b895b)">
     <use xlink:href="#m874cb5e8ab" x="865.478182" y="208.695577" style="fill: #d62728; stroke: #d62728"/>
     <use xlink:href="#m874cb5e8ab" x="1196.641818" y="207.420107" style="fill: #d62728; stroke: #d62728"/>
    </g>
   </g>
   <g id="line2d_83">
    <path d="M 865.478182 206.890985 
L 1196.641818 207.700675 
" clip-path="url(#p90375b895b)" style="fill: none; stroke: #ff9896; stroke-width: 1.5; stroke-linecap: square"/>
    <g clip-path="url(#p90375b895b)">
     <use xlink:href="#m22e5cf39de" x="865.478182" y="206.890985" style="fill: #ff9896; stroke: #ff9896"/>
     <use xlink:href="#m22e5cf39de" x="1196.641818" y="207.700675" style="fill: #ff9896; stroke: #ff9896"/>
    </g>
   </g>
   <g id="line2d_84">
    <path d="M 865.478182 84.108881 
L 1196.641818 96.953128 
" clip-path="url(#p90375b895b)" style="fill: none; stroke: #8c564b; stroke-width: 1.5; stroke-linecap: square"/>
    <g clip-path="url(#p90375b895b)">
     <use xlink:href="#mbf3dee5b5c" x="865.478182" y="84.108881" style="fill: #8c564b; stroke: #8c564b"/>
     <use xlink:href="#mbf3dee5b5c" x="1196.641818" y="96.953128" style="fill: #8c564b; stroke: #8c564b"/>
    </g>
   </g>
   <g id="line2d_85">
    <path d="M 865.478182 207.999841 
L 1196.641818 207.386933 
" clip-path="url(#p90375b895b)" style="fill: none; stroke: #c49c94; stroke-width: 1.5; stroke-linecap: square"/>
    <g clip-path="url(#p90375b895b)">
     <use xlink:href="#mbc7ece2c8b" x="865.478182" y="207.999841" style="fill: #c49c94; stroke: #c49c94"/>
     <use xlink:href="#mbc7ece2c8b" x="1196.641818" y="207.386933" style="fill: #c49c94; stroke: #c49c94"/>
    </g>
   </g>
   <g id="patch_9">
    <path d="M 848.92 308.661656 
L 848.92 77.097172 
" style="fill: none; stroke: #000000; stroke-width: 0.8; stroke-linejoin: miter; stroke-linecap: square"/>
   </g>
   <g id="patch_10">
    <path d="M 848.92 308.661656 
L 1213.2 308.661656 
" style="fill: none; stroke: #000000; stroke-width: 0.8; stroke-linejoin: miter; stroke-linecap: square"/>
   </g>
   <g id="text_38">
    <text style="font-size: 11px; font-family: 'DejaVu Sans'; text-anchor: start" x="848.92" y="71.097172" transform="rotate(-0 848.92 71.097172)">Writer service: Mversions/s</text>
   </g>
  </g>
  <g id="text_39">
   <text style="font-weight: 700; font-size: 16px; font-family: 'DejaVu Sans'; text-anchor: middle" x="612" y="20.5795" transform="rotate(-0 612 20.5795)">MVCC SWMR | deep-1m</text>
  </g>
  <g id="text_40">
   <text style="font-size: 10px; font-family: 'DejaVu Sans'; text-anchor: middle" x="612" y="413.424" transform="rotate(-0 612 413.424)">Fixed finite read/write budgets; reader tail included in group wall time. This does not measure parallel writers or pure read-only scaling.</text>
  </g>
  <g id="legend_1">
   <g id="line2d_86">
    <path d="M 358.627344 373.080875 
L 368.627344 373.080875 
L 378.627344 373.080875 
" style="fill: none; stroke: #aec7e8; stroke-width: 1.5; stroke-linecap: square"/>
    <g>
     <use xlink:href="#m32df14957c" x="368.627344" y="373.080875" style="fill: #aec7e8; stroke: #aec7e8"/>
    </g>
   </g>
   <g id="text_41">
    <text style="font-size: 10px; font-family: 'DejaVu Sans'; text-anchor: start" x="386.627344" y="376.580875" transform="rotate(-0 386.627344 376.580875)">btreeolc</text>
   </g>
   <g id="line2d_87">
    <path d="M 358.627344 388.081656 
L 368.627344 388.081656 
L 378.627344 388.081656 
" style="fill: none; stroke: #ffbb78; stroke-width: 1.5; stroke-linecap: square"/>
    <g>
     <use xlink:href="#m84258228b9" x="368.627344" y="388.081656" style="fill: #ffbb78; stroke: #ffbb78"/>
    </g>
   </g>
   <g id="text_42">
    <text style="font-size: 10px; font-family: 'DejaVu Sans'; text-anchor: start" x="386.627344" y="391.581656" transform="rotate(-0 386.627344 391.581656)">cse_crossbeam</text>
   </g>
   <g id="line2d_88">
    <path d="M 482.785156 373.080875 
L 492.785156 373.080875 
L 502.785156 373.080875 
" style="fill: none; stroke: #98df8a; stroke-width: 1.5; stroke-linecap: square"/>
    <g>
     <use xlink:href="#m50e7ce5f10" x="492.785156" y="373.080875" style="fill: #98df8a; stroke: #98df8a"/>
    </g>
   </g>
   <g id="text_43">
    <text style="font-size: 10px; font-family: 'DejaVu Sans'; text-anchor: start" x="510.785156" y="376.580875" transform="rotate(-0 510.785156 376.580875)">masstree</text>
   </g>
   <g id="line2d_89">
    <path d="M 482.785156 388.081656 
L 492.785156 388.081656 
L 502.785156 388.081656 
" style="fill: none; stroke: #d62728; stroke-width: 1.5; stroke-linecap: square"/>
    <g>
     <use xlink:href="#m874cb5e8ab" x="492.785156" y="388.081656" style="fill: #d62728; stroke: #d62728"/>
    </g>
   </g>
   <g id="text_44">
    <text style="font-size: 10px; font-family: 'DejaVu Sans'; text-anchor: start" x="510.785156" y="391.581656" transform="rotate(-0 510.785156 391.581656)">oceanbase_keybtree</text>
   </g>
   <g id="line2d_90">
    <path d="M 633.832031 373.080875 
L 643.832031 373.080875 
L 653.832031 373.080875 
" style="fill: none; stroke: #ff9896; stroke-width: 1.5; stroke-linecap: square"/>
    <g>
     <use xlink:href="#m22e5cf39de" x="643.832031" y="373.080875" style="fill: #ff9896; stroke: #ff9896"/>
    </g>
   </g>
   <g id="text_45">
    <text style="font-size: 10px; font-family: 'DejaVu Sans'; text-anchor: start" x="661.832031" y="376.580875" transform="rotate(-0 661.832031 376.580875)">rocksdb_inlineskiplist</text>
   </g>
   <g id="line2d_91">
    <path d="M 633.832031 388.081656 
L 643.832031 388.081656 
L 653.832031 388.081656 
" style="fill: none; stroke: #8c564b; stroke-width: 1.5; stroke-linecap: square"/>
    <g>
     <use xlink:href="#mbf3dee5b5c" x="643.832031" y="388.081656" style="fill: #8c564b; stroke: #8c564b"/>
    </g>
   </g>
   <g id="text_46">
    <text style="font-size: 10px; font-family: 'DejaVu Sans'; text-anchor: start" x="661.832031" y="391.581656" transform="rotate(-0 661.832031 391.581656)">unodb_art</text>
   </g>
   <g id="line2d_92">
    <path d="M 788.011719 373.080875 
L 798.011719 373.080875 
L 808.011719 373.080875 
" style="fill: none; stroke: #c49c94; stroke-width: 1.5; stroke-linecap: square"/>
    <g>
     <use xlink:href="#mbc7ece2c8b" x="798.011719" y="373.080875" style="fill: #c49c94; stroke: #c49c94"/>
    </g>
   </g>
   <g id="text_47">
    <text style="font-size: 10px; font-family: 'DejaVu Sans'; text-anchor: start" x="816.011719" y="376.580875" transform="rotate(-0 816.011719 376.580875)">wormhole</text>
   </g>
  </g>
 </g>
 <defs>
  <clipPath id="p6704607aea">
   <rect x="40.12" y="77.097172" width="364.28" height="231.564484"/>
  </clipPath>
  <clipPath id="p3b0d56240d">
   <rect x="444.52" y="77.097172" width="364.28" height="231.564484"/>
  </clipPath>
  <clipPath id="p90375b895b">
   <rect x="848.92" y="77.097172" width="364.28" height="231.564484"/>
  </clipPath>
 </defs>
</svg>
